<svg width="320" height="54" viewBox="0 0 320 54" fill="none" xmlns="http://www.w3.org/2000/svg">
<path fill-rule="evenodd" clip-rule="evenodd" d="M217.946 38.3249H202.479L199.405 32.1539L190.303 32.1089L186.779 38.3249H181.736L201.219 3.34961L217.946 38.3249ZM198.601 30.4878L195.121 23.4985L191.251 30.4878H198.601Z" fill="#FF0101"/>
<path fill-rule="evenodd" clip-rule="evenodd" d="M234.286 31.9854L234.27 31.9662V38.3246H220.479V7.02051H237.254C242.605 7.02051 246.634 7.77162 249.331 9.27257C252.278 10.8993 253.873 13.4847 254.127 17.0345C254.127 17.0352 254.127 17.0358 254.127 17.0364C254.128 17.0506 254.128 17.0647 254.129 17.0789C254.13 17.0838 254.13 17.0882 254.131 17.0931C254.152 17.3525 254.164 17.6125 254.164 17.8763C254.164 17.9077 254.163 17.9397 254.163 17.9705C254.163 18.0013 254.164 18.0321 254.164 18.0636C254.164 18.318 254.152 18.5712 254.133 18.8214C254.132 18.8356 254.13 18.8498 254.129 18.8639C254.128 18.8781 254.128 18.8911 254.127 18.9046C254.127 18.9046 254.127 18.9046 254.127 18.9052C253.874 22.4563 252.279 25.0405 249.331 26.6672C246.634 28.1682 242.605 28.9193 237.254 28.9193H234.27V29.5416C234.276 29.5385 234.28 29.5355 234.286 29.5324V31.9854ZM239.708 17.9717C239.527 16.1275 238.991 14.4725 238.103 13.0109C237.141 11.42 235.863 10.1587 234.27 9.22762V15.2427V26.7121C235.863 25.7811 237.141 24.5198 238.103 22.9288C238.991 21.4672 239.527 19.816 239.708 17.9717Z" fill="#FF0101"/>
<path fill-rule="evenodd" clip-rule="evenodd" d="M169.279 6.99707V9.99079L163.15 9.97233V13.3809L163.166 13.3599V15.8123C163.159 15.8123 163.156 15.8085 163.15 15.8018V16.4235H166.132C171.483 16.4235 175.514 17.1761 178.212 18.677C181.156 20.3039 182.755 22.887 183.005 26.4414C183.008 26.4549 183.008 26.468 183.008 26.4821C183.01 26.4939 183.01 26.5093 183.01 26.5247C183.032 26.7761 183.044 27.0267 183.044 27.2805C183.044 27.3131 183.041 27.344 183.041 27.3724C183.041 27.4058 183.044 27.4373 183.044 27.4687C183.044 27.733 183.032 27.9923 183.01 28.251C183.01 28.2565 183.01 28.2615 183.008 28.2676C183.008 28.2794 183.008 28.2923 183.005 28.3065V28.3084C182.752 31.8591 181.156 34.4441 178.212 36.0703C175.514 37.5731 171.483 38.3251 166.132 38.3251H149.358V7.01865H159.349V6.99707H169.279ZM168.588 27.3718C168.403 29.2178 167.872 30.8718 166.98 32.3369C166.021 33.9243 164.742 35.1856 163.15 36.1172V30.1026V18.6319C164.742 19.5667 166.021 20.8243 166.98 22.4165C167.872 23.8767 168.403 25.5258 168.588 27.3718Z" fill="#FF0101"/>
<path fill-rule="evenodd" clip-rule="evenodd" d="M284.816 38.3253H277.664H269.353C269.352 38.3228 269.351 38.3197 269.35 38.3172L254.444 38.3036L251.084 44.3387L248.194 38.2974L242.133 38.2919V35.3284H250.28L268.093 3.34961L284.816 38.3253ZM267.863 35.3284C265.098 29.7681 265.59 30.7238 261.999 23.4996C257.68 31.2887 258.821 29.2291 255.356 35.3284H267.863Z" fill="#FF0101"/>
<path d="M112.93 50.466V51.9062H113.508V52.3072H112.937H111.889H111.331V51.9062H111.889V47.8911H111.331V47.4834H111.889H113.148C113.728 47.4834 114.217 47.5739 114.614 47.755C115.011 47.936 115.209 48.3303 115.209 48.9371C115.218 49.1591 115.185 49.3665 115.11 49.5591C115.035 49.7514 114.913 49.918 114.743 50.0583C114.573 50.1985 114.341 50.3049 114.049 50.3774C113.757 50.4499 113.384 50.4794 112.93 50.466ZM112.93 50.0991C113.089 50.1172 113.267 50.1048 113.464 50.0618C113.661 50.0183 113.837 49.9066 113.991 49.725C114.146 49.544 114.215 49.2657 114.202 48.8895C114.189 48.4865 114.058 48.2123 113.811 48.0674C113.564 47.9226 113.27 47.8637 112.93 47.8911V50.0991ZM117.25 47.9655V49.5352H118.759V49.0189H119.147V50.4591H118.759V49.9564H117.25V51.8178H119.188V51.2812H119.556V52.3072H115.657V51.9062H116.222V47.8911H115.657V47.4834H119.433V48.4343H119.039V47.9655H117.25ZM121.725 47.9655V51.9062H122.351V52.3072H120.127V51.9062H120.685V47.8978H120.127V47.4834H123.766V48.4685H123.297V47.9655H121.725ZM125.739 50.9688L127.848 48.0674V47.8911H127.29V47.4834H127.834H128.875H129.446V47.8911H128.875V51.9062H129.446V52.3072H128.875H127.834H127.29V51.9062H127.848V48.7467L125.739 51.6413V51.9062H126.31V52.3072H125.759H124.711H124.147V51.9062H124.711V47.8911H124.147V47.4834H124.711H125.759H126.31V47.8911H125.739V50.9688ZM131.045 49.8952C131.045 50.3841 131.119 50.7918 131.269 51.1183C131.419 51.4443 131.61 51.6786 131.844 51.8213C132.078 51.964 132.314 52.0356 132.555 52.0356C132.795 52.0356 133.031 51.9673 133.262 51.8316C133.494 51.6958 133.687 51.468 133.844 51.1487C134 50.8296 134.079 50.4115 134.079 49.8952C134.079 49.3878 134.004 48.9755 133.854 48.6587C133.705 48.3416 133.513 48.1115 133.279 47.9691C133.046 47.8263 132.804 47.755 132.555 47.755C132.16 47.755 131.81 47.9283 131.504 48.2748C131.198 48.6209 131.045 49.1611 131.045 49.8952ZM129.854 49.8952C129.854 49.4741 129.966 49.0721 130.191 48.6892C130.415 48.3065 130.736 47.9972 131.154 47.7617C131.571 47.5263 132.038 47.4083 132.555 47.4083C133.076 47.4083 133.543 47.5253 133.956 47.7581C134.369 47.9915 134.69 48.3009 134.919 48.6857C135.148 49.0707 135.262 49.4741 135.262 49.8952C135.262 50.321 135.148 50.7262 134.919 51.1116C134.69 51.4965 134.369 51.8052 133.956 52.0386C133.543 52.272 133.076 52.3888 132.555 52.3888C132.038 52.3888 131.571 52.271 131.154 52.0356C130.736 51.7996 130.415 51.4908 130.191 51.1079C129.966 50.7252 129.854 50.321 129.854 49.8952ZM137.289 49.9564V51.9062H137.854V52.3072H137.31H136.249H135.691V51.9062H136.249V47.8911H135.691V47.4834H136.249H137.31H137.854V47.8911H137.289V49.5352H139.452V47.8911H138.888V47.4834H139.432H140.487H141.051V47.8911H140.487V51.9062H141.051V52.3072H140.487H139.432H138.888V51.9062H139.452V49.9564H137.289ZM144.588 50.9755H142.466L142.098 51.9062H142.616V52.3072H141.16V51.9062H141.698L143.493 47.4834H144.085L146.065 51.9062H146.609L146.595 52.3072H144.425V51.9062H144.983L144.588 50.9755ZM143.452 48.5429L142.616 50.5812H144.425L143.52 48.5429L143.507 48.3798H143.473L143.452 48.5429ZM148.887 48.5496L148.847 48.7467L147.67 51.7774C147.602 51.945 147.514 52.0874 147.404 52.2052C147.296 52.3232 147.13 52.3841 146.908 52.3888C146.767 52.3888 146.602 52.3569 146.412 52.2938L146.752 51.4985C146.843 51.5891 146.94 51.6346 147.044 51.6346C147.189 51.6346 147.307 51.5192 147.398 51.288L148.752 47.8911H148.214V47.4834H148.765H149.527L151.18 51.9062H151.663V52.3072H149.575V51.9062H150.119L148.956 48.7467L148.922 48.5496H148.887ZM152.52 51.9062V47.8911H151.962V47.4834H154.125V47.8911H153.561V49.5352H154.173C154.359 49.5352 154.58 49.56 154.837 49.6096C155.092 49.6597 155.342 49.7841 155.584 49.9838C155.827 50.1828 155.951 50.4861 155.955 50.8937C155.964 51.3108 155.812 51.6501 155.5 51.9129C155.187 52.1758 154.661 52.3072 153.921 52.3072H151.962V51.9062H152.52ZM153.561 51.9062H153.921C154.216 51.9062 154.456 51.8089 154.642 51.6139C154.828 51.4193 154.915 51.1794 154.901 50.8937C154.887 50.4908 154.763 50.2326 154.53 50.1193C154.297 50.0059 154.066 49.9496 153.84 49.9496H153.561V51.9062ZM158.01 49.9564V51.9062H158.574V52.3072H158.03H156.969H156.411V51.9062H156.969V47.8911H156.411V47.4834H156.969H158.03H158.574V47.8911H158.01V49.5352H160.173V47.8911H159.608V47.4834H160.152H161.207H161.771V47.8911H161.207V51.9062H161.771V52.3072H161.207H160.152H159.608V51.9062H160.173V49.9564H158.01ZM165.309 50.9755H163.186L162.819 51.9062H163.336V52.3072H161.88V51.9062H162.418L164.214 47.4834H164.805L166.785 51.9062H167.329L167.315 52.3072H165.145V51.9062H165.703L165.309 50.9755ZM164.173 48.5429L163.336 50.5812H165.145L164.24 48.5429L164.227 48.3798H164.193L164.173 48.5429ZM171.309 47.8911V51.9062H171.887V52.3072H171.309H170.274H169.71V51.9062H170.288V50.364C170.048 50.3413 169.879 50.3677 169.781 50.442C169.684 50.5166 169.594 50.6356 169.513 50.7985L168.88 52.0149C168.744 52.2643 168.497 52.3888 168.139 52.3888C167.848 52.3931 167.563 52.3661 167.281 52.3072V51.8927C167.304 51.8927 167.326 51.8918 167.346 51.8891C167.366 51.8871 167.392 51.886 167.424 51.886C167.547 51.8767 167.637 51.852 167.696 51.8111C167.792 51.7613 167.907 51.6232 168.043 51.3965L168.492 50.6086C168.637 50.3594 168.807 50.2192 169.003 50.1875V50.1467C168.826 50.1193 168.649 50.0504 168.472 49.9393C168.295 49.8286 168.149 49.6831 168.033 49.5046C167.918 49.3256 167.86 49.1182 167.86 48.8828C167.86 48.6334 167.926 48.4039 168.061 48.1932C168.194 47.9825 168.391 47.8113 168.652 47.6798C168.913 47.5491 169.227 47.4834 169.594 47.4834H171.309H171.887V47.8911H171.309ZM170.288 47.8911C169.444 47.8092 169.003 48.14 168.962 48.8828C168.943 49.322 169.049 49.6222 169.278 49.7831C169.507 49.9439 169.844 50.0085 170.288 49.9765V47.8911ZM177.832 50.9755H175.71L175.342 51.9062H175.859V52.3072H174.403V51.9062H174.941L176.737 47.4834H177.328L179.308 51.9062H179.852L179.838 52.3072H177.668V51.9062H178.226L177.832 50.9755ZM176.696 48.5429L175.859 50.5812H177.668L176.764 48.5429L176.75 48.3798H176.716L176.696 48.5429ZM184.24 47.4628V48.8286H183.838C183.825 48.5476 183.694 48.3076 183.447 48.1083C183.2 47.9092 182.913 47.8092 182.587 47.8092C182.292 47.8092 182.022 47.8885 181.777 48.0473C181.532 48.2056 181.335 48.4504 181.186 48.7809C181.036 49.1115 180.97 49.5145 180.988 49.9905C181.011 50.5745 181.167 51.0537 181.457 51.4272C181.748 51.8011 182.158 51.9854 182.689 51.9812C183.219 51.9631 183.666 51.7231 184.029 51.261L184.382 51.5259C183.865 52.0737 183.244 52.3614 182.519 52.3888C182.065 52.4071 181.63 52.3165 181.212 52.1168C180.795 51.9175 180.459 51.6269 180.202 51.244C179.946 50.8611 179.811 50.4203 179.798 49.9222C179.784 49.4561 179.888 49.022 180.111 48.6209C180.333 48.2206 180.649 47.9102 181.06 47.6903C181.47 47.4704 181.931 47.3768 182.444 47.4083C182.897 47.4311 183.301 47.5739 183.655 47.8363L183.886 47.4628H184.24ZM189.192 47.4628V48.8286H188.791C188.777 48.5476 188.647 48.3076 188.399 48.1083C188.152 47.9092 187.865 47.8092 187.539 47.8092C187.244 47.8092 186.974 47.8885 186.729 48.0473C186.485 48.2056 186.287 48.4504 186.138 48.7809C185.988 49.1115 185.922 49.5145 185.94 49.9905C185.963 50.5745 186.119 51.0537 186.41 51.4272C186.7 51.8011 187.11 51.9854 187.641 51.9812C188.172 51.9631 188.618 51.7231 188.981 51.261L189.334 51.5259C188.817 52.0737 188.197 52.3614 187.471 52.3888C187.017 52.4071 186.582 52.3165 186.165 52.1168C185.748 51.9175 185.411 51.6269 185.155 51.244C184.899 50.8611 184.764 50.4203 184.75 49.9222C184.736 49.4561 184.841 49.022 185.063 48.6209C185.285 48.2206 185.602 47.9102 186.012 47.6903C186.422 47.4704 186.883 47.3768 187.396 47.4083C187.849 47.4311 188.253 47.5739 188.607 47.8363L188.838 47.4628H189.192ZM190.872 49.8952C190.872 50.3841 190.947 50.7918 191.097 51.1183C191.246 51.4443 191.438 51.6786 191.671 51.8213C191.905 51.964 192.142 52.0356 192.382 52.0356C192.622 52.0356 192.859 51.9673 193.09 51.8316C193.321 51.6958 193.515 51.468 193.671 51.1487C193.828 50.8296 193.906 50.4115 193.906 49.8952C193.906 49.3878 193.831 48.9755 193.682 48.6587C193.532 48.3416 193.34 48.1115 193.107 47.9691C192.873 47.8263 192.632 47.755 192.382 47.755C191.987 47.755 191.637 47.9283 191.331 48.2748C191.025 48.6209 190.872 49.1611 190.872 49.8952ZM189.682 49.8952C189.682 49.4741 189.794 49.0721 190.018 48.6892C190.243 48.3065 190.564 47.9972 190.981 47.7617C191.398 47.5263 191.865 47.4083 192.382 47.4083C192.904 47.4083 193.371 47.5253 193.784 47.7581C194.196 47.9915 194.517 48.3009 194.746 48.6857C194.975 49.0707 195.089 49.4741 195.089 49.8952C195.089 50.321 194.975 50.7262 194.746 51.1116C194.517 51.4965 194.196 51.8052 193.784 52.0386C193.371 52.272 192.904 52.3888 192.382 52.3888C191.865 52.3888 191.398 52.271 190.981 52.0356C190.564 51.7996 190.243 51.4908 190.018 51.1079C189.794 50.7252 189.682 50.321 189.682 49.8952ZM197.117 51.8178H199.198V47.8911H198.641V47.4834H199.171H200.225H200.797V47.8911H200.225V51.9062H200.865V53.6456H200.048V52.3072H196.076H195.518V51.9062H196.076V47.8911H195.518V47.4834H196.076H197.117H197.681V47.8911H197.117V51.8178ZM202.954 50.9688L205.062 48.0674V47.8911H204.504V47.4834H205.049H206.089H206.66V47.8911H206.089V51.9062H206.66V52.3072H206.089H205.049H204.504V51.9062H205.062V48.7467L202.954 51.6413V51.9062H203.525V52.3072H202.974H201.926H201.361V51.9062H201.926V47.8911H201.361V47.4834H201.926H202.974H203.525V47.8911H202.954V50.9688ZM210.177 50.9755H208.055L207.688 51.9062H208.205V52.3072H206.749V51.9062H207.287L209.082 47.4834H209.674L211.654 51.9062H212.198L212.184 52.3072H210.014V51.9062H210.572L210.177 50.9755ZM209.042 48.5429L208.205 50.5812H210.014L209.109 48.5429L209.096 48.3798H209.062L209.042 48.5429ZM213.899 51.8178H215.98V47.8911H215.422V47.4834H215.953H217.007H217.578V47.8911H217.007V51.9062H217.646V53.6456H216.83V52.3072H212.858H212.3V51.9062H212.858V47.8911H212.3V47.4834H212.858H213.899H214.463V47.8911H213.899V51.8178ZM219.735 50.9688L221.844 48.0674V47.8911H221.286V47.4834H221.83H222.871H223.442V47.8911H222.871V51.9062H223.442V52.3072H222.871H221.83H221.286V51.9062H221.844V48.7467L219.735 51.6413V51.9062H220.307V52.3072H219.755H218.708H218.143V51.9062H218.708V47.8911H218.143V47.4834H218.708H219.755H220.307V47.8911H219.735V50.9688ZM227.905 47.8911V51.9062H228.483V52.3072H227.905H226.871H226.306V51.9062H226.885V50.364C226.644 50.3413 226.475 50.3677 226.377 50.442C226.28 50.5166 226.191 50.6356 226.109 50.7985L225.476 52.0149C225.34 52.2643 225.093 52.3888 224.735 52.3888C224.444 52.3931 224.159 52.3661 223.878 52.3072V51.8927C223.901 51.8927 223.922 51.8918 223.942 51.8891C223.963 51.8871 223.989 51.886 224.021 51.886C224.143 51.8767 224.234 51.852 224.293 51.8111C224.388 51.7613 224.504 51.6232 224.64 51.3965L225.089 50.6086C225.234 50.3594 225.404 50.2192 225.599 50.1875V50.1467C225.422 50.1193 225.245 50.0504 225.068 49.9393C224.891 49.8286 224.745 49.6831 224.629 49.5046C224.514 49.3256 224.456 49.1182 224.456 48.8828C224.456 48.6334 224.523 48.4039 224.657 48.1932C224.791 47.9825 224.988 47.8113 225.248 47.6798C225.509 47.5491 225.823 47.4834 226.191 47.4834H227.905H228.483V47.8911H227.905ZM226.885 47.8911C226.041 47.8092 225.599 48.14 225.558 48.8828C225.54 49.322 225.645 49.6222 225.874 49.7831C226.103 49.9439 226.44 50.0085 226.885 49.9765V47.8911ZM233.673 48.5496L233.632 48.7467L232.456 51.7774C232.387 51.945 232.299 52.0874 232.19 52.2052C232.081 52.3232 231.916 52.3841 231.694 52.3888C231.553 52.3888 231.388 52.3569 231.197 52.2938L231.537 51.4985C231.628 51.5891 231.725 51.6346 231.829 51.6346C231.975 51.6346 232.093 51.5192 232.183 51.288L233.537 47.8911H233V47.4834H233.551H234.313L235.965 51.9062H236.448V52.3072H234.36V51.9062H234.904L233.741 48.7467L233.707 48.5496H233.673ZM237.762 49.8952C237.762 50.3841 237.836 50.7918 237.986 51.1183C238.136 51.4443 238.327 51.6786 238.561 51.8213C238.794 51.964 239.031 52.0356 239.271 52.0356C239.512 52.0356 239.748 51.9673 239.979 51.8316C240.211 51.6958 240.404 51.468 240.561 51.1487C240.717 50.8296 240.795 50.4115 240.795 49.8952C240.795 49.3878 240.721 48.9755 240.571 48.6587C240.421 48.3416 240.23 48.1115 239.996 47.9691C239.763 47.8263 239.521 47.755 239.271 47.755C238.877 47.755 238.527 47.9283 238.22 48.2748C237.914 48.6209 237.762 49.1611 237.762 49.8952ZM236.571 49.8952C236.571 49.4741 236.683 49.0721 236.908 48.6892C237.132 48.3065 237.453 47.9972 237.87 47.7617C238.287 47.5263 238.754 47.4083 239.271 47.4083C239.793 47.4083 240.26 47.5253 240.673 47.7581C241.085 47.9915 241.406 48.3009 241.635 48.6857C241.864 49.0707 241.979 49.4741 241.979 49.8952C241.979 50.321 241.864 50.7262 241.635 51.1116C241.406 51.4965 241.085 51.8052 240.673 52.0386C240.26 52.272 239.793 52.3888 239.271 52.3888C238.754 52.3888 238.287 52.271 237.87 52.0356C237.453 51.7996 237.132 51.4908 236.908 51.1079C236.683 50.7252 236.571 50.321 236.571 49.8952ZM245.625 50.8394L247.305 47.4834H248.876V47.8911H248.312V51.9062H248.876V52.3072H248.312H247.305H246.741V51.9062H247.305V48.4685L245.625 51.8794H245.074L243.367 48.4685V51.9062H243.938V52.3072H243.367H242.966H242.408V51.9062H242.966V47.8911H242.408V47.4834H242.966H243.938L245.625 50.8394ZM253.019 47.4834V48.455H252.563V47.9655H251.08V49.4668H251.556C251.838 49.4668 252.051 49.4741 252.196 49.4875C252.486 49.5239 252.783 49.6324 253.087 49.8136C253.391 49.9946 253.552 50.3279 253.57 50.8126C253.597 51.4603 253.401 51.871 252.982 52.0453C252.562 52.2198 252.099 52.3072 251.591 52.3072H249.482V51.9062H250.04V47.8911H249.482V47.4834H253.019ZM251.08 51.8927H251.502C251.77 51.8927 251.99 51.7975 252.162 51.6072C252.334 51.4172 252.418 51.1794 252.414 50.8937C252.409 50.2641 252.076 49.9496 251.414 49.9496H251.08V51.8927ZM257.06 50.9755H254.937L254.57 51.9062H255.087V52.3072H253.631V51.9062H254.169L255.965 47.4834H256.556L258.536 51.9062H259.08L259.066 52.3072H256.896V51.9062H257.454L257.06 50.9755ZM255.924 48.5429L255.087 50.5812H256.896L255.991 48.5429L255.978 48.3798H255.944L255.924 48.5429ZM260.781 50.466V51.9062H261.359V52.3072H260.787H259.74H259.182V51.9062H259.74V47.8911H259.182V47.4834H259.74H260.998C261.579 47.4834 262.067 47.5739 262.464 47.755C262.861 47.936 263.059 48.3303 263.059 48.9371C263.068 49.1591 263.036 49.3665 262.961 49.5591C262.886 49.7514 262.763 49.918 262.593 50.0583C262.424 50.1985 262.192 50.3049 261.899 50.3774C261.607 50.4499 261.234 50.4794 260.781 50.466ZM260.781 50.0991C260.94 50.1172 261.117 50.1048 261.315 50.0618C261.512 50.0183 261.687 49.9066 261.842 49.725C261.996 49.544 262.066 49.2657 262.053 48.8895C262.039 48.4865 261.909 48.2123 261.662 48.0674C261.414 47.9226 261.121 47.8637 260.781 47.8911V50.0991ZM266.113 47.4834L267.726 51.9062H268.284L268.27 53.6456H267.522V52.3072H263.985V53.6456H263.23V51.9062H263.767L265.29 47.8978H264.76V47.4834H265.331H266.113ZM265.447 48.7132L264.277 51.8178H266.61L265.57 48.6991L265.535 48.4751H265.488L265.447 48.7132ZM269.597 49.8952C269.597 50.3841 269.671 50.7918 269.821 51.1183C269.971 51.4443 270.162 51.6786 270.396 51.8213C270.629 51.964 270.866 52.0356 271.106 52.0356C271.347 52.0356 271.583 51.9673 271.814 51.8316C272.046 51.6958 272.239 51.468 272.396 51.1487C272.552 50.8296 272.63 50.4115 272.63 49.8952C272.63 49.3878 272.556 48.9755 272.406 48.6587C272.256 48.3416 272.065 48.1115 271.831 47.9691C271.597 47.8263 271.356 47.755 271.106 47.755C270.712 47.755 270.362 47.9283 270.056 48.2748C269.749 48.6209 269.597 49.1611 269.597 49.8952ZM268.406 49.8952C268.406 49.4741 268.518 49.0721 268.743 48.6892C268.967 48.3065 269.288 47.9972 269.705 47.7617C270.122 47.5263 270.59 47.4083 271.106 47.4083C271.628 47.4083 272.095 47.5253 272.508 47.7581C272.92 47.9915 273.241 48.3009 273.47 48.6857C273.699 49.0707 273.814 49.4741 273.814 49.8952C273.814 50.321 273.699 50.7262 273.47 51.1116C273.241 51.4965 272.92 51.8052 272.508 52.0386C272.095 52.272 271.628 52.3888 271.106 52.3888C270.59 52.3888 270.122 52.271 269.705 52.0356C269.288 51.7996 268.967 51.4908 268.743 51.1079C268.518 50.7252 268.406 50.321 268.406 49.8952ZM277.079 49.6641V49.7048C277.406 49.7183 277.692 49.8239 277.94 50.021C278.187 50.2182 278.317 50.5001 278.331 50.8667C278.349 51.2972 278.189 51.6449 277.851 51.9099C277.513 52.1747 277.1 52.3072 276.61 52.3072H274.243V51.9062H274.801V47.8911H274.243V47.4834H276.494C277.093 47.4834 277.505 47.5962 277.732 47.8226C277.959 48.0494 278.081 48.2962 278.099 48.5637C278.113 48.8446 278.028 49.0878 277.845 49.2941C277.661 49.4999 277.406 49.6232 277.079 49.6641ZM275.841 51.8927H276.263C276.553 51.8927 276.801 51.7985 277.008 51.6108C277.214 51.4229 277.311 51.1841 277.297 50.8937C277.292 50.4955 277.166 50.2383 276.916 50.1229C276.667 50.0069 276.419 49.9496 276.175 49.9496H275.841V51.8927ZM275.841 49.5352H276.195C276.481 49.5352 276.706 49.4456 276.872 49.2667C277.037 49.0878 277.115 48.8828 277.106 48.6517C277.097 48.4524 277.018 48.2759 276.868 48.1217C276.719 47.9675 276.49 47.8911 276.181 47.8911H275.841V49.5352Z" fill="#E11E30"/>
<path fill-rule="evenodd" clip-rule="evenodd" d="M0 42.4512V43.8429H94.4291C169.288 43.8429 244.701 43.8429 320 43.8429V42.4512C203.132 42.4512 111.371 42.4512 0 42.4512Z" fill="#FF0101"/>
<path fill-rule="evenodd" clip-rule="evenodd" d="M64.9477 36.478L64.9801 36.5513L67.0042 39.0609C67.7338 39.7685 68.4762 40.4514 69.2457 41.118L69.89 41.6224L72.1626 43.248C72.6523 43.5588 73.153 43.8531 73.6715 44.1186C74.5738 44.5725 75.4807 44.9941 76.4183 45.3609C77.6168 45.8135 78.8196 46.1813 80.061 46.4815C80.5283 46.5871 80.9966 46.684 81.4616 46.7721C83.5125 47.1178 85.6054 47.26 87.6791 47.2366L88.6534 47.2046C90.7445 47.0934 92.8096 46.8196 94.8282 46.2783C95.774 46.0121 96.7202 45.73 97.6357 45.3886C98.7113 44.9657 99.7305 44.4798 100.747 43.9457L101.921 43.248L104.251 41.6224C104.869 41.1477 105.468 40.6499 106.046 40.1179C106.697 39.4845 107.302 38.8422 107.893 38.1614L108.708 37.1305V38.488H113.353V13.5798L122.326 40.3798L131.12 13.0394V38.488H144.919V7.18418H128.91L126.565 14.0753L124.393 7.18418H108.708V10.1085L107.893 9.07768C107.302 8.39683 106.697 7.75452 106.046 7.12114C104.846 6.01707 103.559 5.05714 102.196 4.15392L100.747 3.29335C99.7305 2.75924 98.7113 2.27336 97.6357 1.85044C96.7202 1.50901 95.774 1.22667 94.8282 0.960769C92.8096 0.41915 90.7445 0.14566 88.6534 0.0344784L87.6791 0.00247981C85.6054 -0.0209621 83.5125 0.120881 81.4616 0.466928C80.9966 0.555039 80.5283 0.652005 80.061 0.757531C78.8196 1.05774 77.6168 1.42559 76.4183 1.87813C75.4807 2.24494 74.5738 2.66652 73.6715 3.12047C72.6725 3.6321 71.7418 4.24829 70.8207 4.88791L69.2457 6.12103C68.4762 6.78768 67.7338 7.47054 67.0042 8.17811L64.9801 10.6878L64.9477 10.7379V6.3559L36.4482 22.4511V39.5139L60.3932 25.2736V38.6057H64.9477V36.478Z" fill="#FF0101"/>
<path fill-rule="evenodd" clip-rule="evenodd" d="M111.893 23.7662L111.812 25.461C111.558 28.0423 110.997 30.41 109.957 32.771C109.22 34.3231 108.372 35.7252 107.399 37.1489L105.409 39.4068C104.394 40.268 103.433 41.1441 102.322 41.8826C101.984 42.0999 101.642 42.3178 101.293 42.5301C99.2406 43.752 97.0587 44.5528 94.7531 45.1813C93.6331 45.4573 92.4939 45.6734 91.3423 45.8116C87.8587 46.1851 84.3119 46.1697 80.8653 45.4585L80.029 45.2727C77.305 44.6189 74.6539 43.5112 72.31 41.9727C71.5386 41.4448 70.7888 40.891 70.057 40.3063C69.3504 39.7204 68.6971 39.0901 68.0536 38.435C66.1554 36.4525 64.6274 34.1243 63.6304 31.5683C63.3152 30.7052 63.0444 29.8457 62.8064 28.9629L62.3089 26.0993C62.1605 23.623 62.1908 21.1015 62.7687 18.6733C62.9029 18.1448 63.0512 17.6132 63.2088 17.0854C63.8585 15.0418 64.8073 13.2433 65.9866 11.4534L67.922 9.05359C69.7472 7.24961 71.7166 5.61843 73.9826 4.39231C74.6545 4.04715 75.3307 3.72299 76.0175 3.41556C78.2668 2.46352 80.6181 1.82576 83.038 1.51826C84.2693 1.38676 85.4863 1.30654 86.7195 1.27566C89.2278 1.25467 91.7286 1.49854 94.1609 2.1017C95.0764 2.34438 95.9757 2.61973 96.8658 2.92224C97.7541 3.24328 98.5978 3.62981 99.4397 4.04224C101.377 5.01772 103.088 6.22844 104.732 7.63056C105.99 8.75666 107.149 10.044 108.107 11.4263C109.144 12.9976 110.066 14.6441 110.673 16.4241C111.129 17.8398 111.522 19.3018 111.694 20.778C111.801 21.7776 111.861 22.7679 111.893 23.7662Z" fill="#FEFEFE"/>
<path fill-rule="evenodd" clip-rule="evenodd" d="M108.711 12.6035V34.6629L64.9505 29.9896V15.6195L108.711 12.6035Z" fill="url(#paint0_linear_165_2026)"/>
<path fill-rule="evenodd" clip-rule="evenodd" d="M111.893 23.7662L111.812 25.461C111.558 28.0423 110.997 30.41 109.957 32.771C109.22 34.3231 108.372 35.7252 107.399 37.1489L105.409 39.4068C104.394 40.268 103.433 41.1441 102.322 41.8826C101.984 42.0999 101.642 42.3178 101.293 42.5301C99.2406 43.752 97.0587 44.5528 94.7531 45.1813C93.6331 45.4573 92.4939 45.6734 91.3423 45.8116C87.8587 46.1851 84.3119 46.1697 80.8653 45.4585L80.029 45.2727C77.305 44.6189 74.6539 43.5112 72.31 41.9727C71.5386 41.4448 70.7888 40.891 70.057 40.3063C69.3504 39.7204 68.6971 39.0901 68.0536 38.435C66.1554 36.4525 64.6274 34.1243 63.6304 31.5683C63.3152 30.7052 63.0444 29.8457 62.8064 28.9629L62.3089 26.0993C62.1605 23.623 62.1908 21.1015 62.7687 18.6733C62.9029 18.1448 63.0512 17.6132 63.2088 17.0854C63.8585 15.0418 64.8073 13.2433 65.9866 11.4534L67.922 9.05359C69.7472 7.24961 71.7166 5.61843 73.9826 4.39231C74.6545 4.04715 75.3307 3.72299 76.0175 3.41556C78.2668 2.46352 80.6181 1.82576 83.038 1.51826C84.2693 1.38676 85.4863 1.30654 86.7195 1.27566C89.2278 1.25467 91.7286 1.49854 94.1609 2.1017C95.0764 2.34438 95.9757 2.61973 96.8658 2.92224C97.7541 3.24328 98.5978 3.62981 99.4397 4.04224C101.377 5.01772 103.088 6.22844 104.732 7.63056C105.99 8.75666 107.149 10.044 108.107 11.4263C109.144 12.9976 110.066 14.6441 110.673 16.4241C111.129 17.8398 111.522 19.3018 111.694 20.778C111.801 21.7776 111.861 22.7679 111.893 23.7662Z" fill="#FFFF00"/>
<path fill-rule="evenodd" clip-rule="evenodd" d="M88.8978 16.748C88.5065 15.1053 87.9539 13.4506 87.1201 11.9678C86.3846 13.3272 85.9146 14.8479 85.4945 16.3241C85.221 17.3606 85.0054 18.3898 84.8446 19.4467C84.7637 20.0524 84.6976 20.657 84.6507 21.2601C84.5516 22.8167 84.5949 24.3286 84.7118 25.8846C84.8102 26.7937 84.9344 27.6903 85.0906 28.5968L85.484 30.3623C85.9103 31.9275 86.4143 33.4483 87.089 34.93C87.7634 33.4351 88.2667 31.9127 88.6967 30.3408C88.908 29.4525 89.0887 28.5737 89.2426 27.6817L89.4665 25.8707C89.5732 24.4618 89.6148 23.0912 89.561 21.6806C89.529 21.0681 89.4811 20.4561 89.4186 19.8432C89.2964 18.8012 89.1247 17.7799 88.8978 16.748Z" fill="#FEFEFE"/>
<path fill-rule="evenodd" clip-rule="evenodd" d="M108.801 23.7643C108.769 25.7277 108.499 27.5361 107.934 29.4243C107.771 29.9211 107.593 30.4139 107.401 30.9084C106.741 32.4773 105.938 33.8489 104.954 35.2499L103.237 37.1985L101.248 38.8864C100.418 39.4531 99.6196 39.9595 98.7313 40.4398C96.9455 41.3159 95.2011 41.9189 93.2565 42.3699L91.5558 42.676C88.5497 43.0699 85.6778 43.0706 82.6652 42.6642C81.6212 42.4784 80.6143 42.2548 79.5858 41.977C77.9115 41.4416 76.4323 40.8089 74.8899 39.9605C73.7169 39.2351 72.6696 38.4764 71.6157 37.586C70.8697 36.9059 70.1844 36.2188 69.51 35.4686C68.4485 34.1583 67.6328 32.8975 66.8878 31.3887C66.3673 30.1645 65.9885 29.0067 65.6826 27.7152L65.3851 25.7722C65.2325 23.696 65.3171 21.824 65.6837 19.7725C65.9112 18.7967 66.1777 17.8856 66.5139 16.9399C67.1728 15.3739 67.9126 14.0551 68.9047 12.6729L70.1923 11.1515C71.6752 9.65257 73.1709 8.467 74.9699 7.36821C76.1875 6.69956 77.3741 6.15891 78.6746 5.67333C80.0247 5.23887 81.3213 4.91887 82.7148 4.67084C84.548 4.41878 86.2947 4.33074 88.1412 4.36274C89.5871 4.44289 90.9603 4.59858 92.38 4.84996C93.7523 5.15538 95.0208 5.52851 96.3322 6.01178C97.285 6.41484 98.1767 6.84468 99.0807 7.33294C100.592 8.24435 101.89 9.20129 103.184 10.3898C103.904 11.1169 104.55 11.8413 105.186 12.6347C106.179 14.0257 106.921 15.3456 107.576 16.9161C108.03 18.1993 108.344 19.4037 108.579 20.738C108.706 21.7603 108.776 22.7401 108.801 23.7643ZM106.946 23.7732C106.934 24.5632 106.884 25.3315 106.783 26.1222C106.64 27.0607 106.438 27.954 106.164 28.8698C105.914 29.6341 105.624 30.3694 105.292 31.1103L104.755 32.1635L104.148 33.1736L103.475 34.1306L102.738 35.0319L101.937 35.876L101.074 36.6637L100.149 37.3927L99.1678 38.0634C98.5292 38.4417 97.8894 38.7901 97.2163 39.119C96.5251 39.4248 95.8356 39.6963 95.1179 39.9489C94.3741 40.1786 93.6311 40.3811 92.8665 40.5588C92.068 40.7156 91.2793 40.8449 90.4689 40.9504C89.6221 41.0329 88.7809 41.0923 87.9235 41.1263C86.9308 41.1404 85.9493 41.1177 84.9536 41.0626L82.9525 40.8337L81.036 40.4497L79.2074 39.9113L77.4689 39.2137L75.8259 38.3609L74.2792 37.3515L72.8404 36.1946L71.52 34.9319L70.3647 33.5791L69.3806 32.1395L68.5741 30.6164L67.9459 29.013L67.4981 27.3368L67.2309 25.5895L67.143 23.7792L67.2316 21.9276L67.5004 20.1459L67.9499 18.4362L68.2434 17.6088L68.9647 16.0198L69.3931 15.2549L70.3832 13.7922L71.5447 12.4199L72.8773 11.1387L74.3424 9.97785L75.9005 8.97104L77.5485 8.11902L79.284 7.42366L81.1021 6.88427L83.004 6.50064L84.9839 6.27173L87.0421 6.19649L89.0867 6.27039L91.0593 6.497L92.9551 6.87601L94.7718 7.41011L96.5073 8.09722L98.1596 8.94135L99.724 9.93596L101.207 11.0899L102.542 12.3761L103.706 13.7519L104.695 15.2179L105.508 16.7736L106.138 18.4105L106.588 20.1281L106.857 21.9167L106.946 23.7732ZM105.71 23.7795C105.71 26.1213 105.199 28.3881 104.177 30.5805C102.915 33.2832 101.02 35.4297 98.5027 37.0213C95.4287 38.9431 91.6109 39.9037 87.0415 39.9037C81.6001 39.9037 77.1357 38.3576 73.6564 35.2647C70.1391 32.2098 68.3802 28.3809 68.3802 23.7795C68.3802 19.0653 70.154 15.1619 73.6933 12.0686C77.2413 8.97603 81.6902 7.42954 87.0415 7.42954C92.3622 7.42954 96.8118 8.96048 100.396 12.0237C103.937 15.1159 105.71 19.0349 105.71 23.7795ZM90.8291 23.096C90.8291 20.4613 90.5135 17.9542 89.8823 15.5745C89.2211 13.2096 88.2888 11.2281 87.0939 9.63679C86.012 11.1456 85.1177 13.1044 84.4334 15.5369C83.7121 17.9991 83.3515 20.521 83.3515 23.096C83.3515 28.3284 84.5988 33.1931 87.0939 37.7045C89.5818 33.1628 90.8291 28.2985 90.8291 23.096Z" fill="#FF0101"/>
<defs>
<linearGradient id="paint0_linear_165_2026" x1="77.9381" y1="14.7609" x2="95.7228" y2="32.506" gradientUnits="userSpaceOnUse">
<stop stop-color="#999966"/>
<stop offset="1" stop-color="#CCCC33"/>
</linearGradient>
</defs>
</svg>
