<svg width="249" height="330" viewBox="0 0 249 330" fill="none" xmlns="http://www.w3.org/2000/svg">
<path d="M122.755 266.006C58.3997 246.609 9.99751 218.365 14.6626 202.906L0.540546 249.73C-4.06699 265.189 44.3121 293.433 108.633 312.831C172.955 332.228 228.948 335.431 233.555 319.972L247.677 273.148C243.047 288.606 187.1 285.404 122.755 266.006Z" fill="url(#paint0_linear_371_2449)"/>
<path style="mix-blend-mode:multiply" d="M117.595 283.111C53.2391 263.714 5.51652 233.223 10.1817 217.776L6.51865 229.917C1.91111 245.364 49.5761 275.854 113.932 295.252C178.288 314.65 234.88 315.606 239.568 300.159L243.231 288.018C238.566 303.465 181.951 302.509 117.595 283.111Z" fill="url(#paint1_linear_371_2449)"/>
<path d="M117.215 284.517C52.8591 265.119 5.13655 234.64 9.80168 219.182L6.1387 231.323C1.53116 246.781 49.2076 277.26 113.563 296.657C177.919 316.055 234.511 317.011 239.188 301.564L242.77 289.424C238.163 304.928 181.525 303.914 117.215 284.517Z" fill="url(#paint2_linear_371_2449)"/>
<path style="mix-blend-mode:multiply" d="M117.215 284.517C52.8591 265.119 5.13655 234.64 9.80168 219.182L6.1387 231.323C1.53116 246.781 49.2076 277.26 113.563 296.657C177.919 316.055 234.511 317.011 239.188 301.564L242.77 289.424C238.163 304.928 181.525 303.914 117.215 284.517Z" fill="url(#paint3_linear_371_2449)"/>
<path d="M32.4478 226.404C55.7504 225.909 91.1939 231.703 129.598 243.291C168.001 254.879 200.75 269.612 219.905 282.904C235.617 282.57 245.834 279.368 247.712 273.148C252.319 257.701 203.94 229.445 139.619 210.048C75.2979 190.65 19.3048 187.436 14.6972 202.906C12.7851 209.138 19.5236 217.385 32.4478 226.404Z" fill="url(#paint4_linear_371_2449)"/>
<path d="M139.619 210.048C75.2631 190.65 19.3046 187.436 14.697 202.906C10.0895 218.376 58.4686 246.609 122.79 266.006C187.111 285.404 243.081 288.606 247.746 273.148C252.411 257.69 203.975 229.445 139.619 210.048ZM124.391 260.581C64.5506 242.542 19.3046 217.028 23.3822 203.563C27.4599 190.097 79.2026 193.852 139.101 211.891C198.999 229.929 244.152 255.443 240.098 268.886C236.043 282.328 184.22 278.619 124.391 260.581Z" fill="url(#paint5_radial_371_2449)"/>
<g style="mix-blend-mode:screen" opacity="0.3">
<g style="mix-blend-mode:screen" opacity="0.3">
<path d="M53.4578 292.419C67.9491 298.898 82.7801 304.589 97.8859 309.467L123.642 266.271L122.755 266.006C107.113 261.295 92.426 256.054 79.2024 250.617L53.4578 292.419Z" fill="#FEFFE8"/>
</g>
<g style="mix-blend-mode:screen" opacity="0.3">
<path d="M233.555 319.972L247.677 273.148C243.623 286.59 200.795 285.922 147.371 272.768L121.822 316.608C180.453 332.573 229.259 334.359 233.555 319.972Z" fill="#FEFFE8"/>
</g>
</g>
<g style="mix-blend-mode:screen" opacity="0.3">
<g style="mix-blend-mode:screen" opacity="0.3">
<path d="M215.678 240.883C206.433 235.807 196.929 231.22 187.203 227.141L169.314 257.09C179.912 261.329 189.634 265.717 198.215 270.106L215.678 240.883Z" fill="#FEFFE8"/>
</g>
<g style="mix-blend-mode:screen" opacity="0.3">
<path d="M135.322 208.78C125.554 205.923 116.005 203.446 106.825 201.373L88.0029 232.704C97.218 234.593 106.859 236.897 116.8 239.616L135.322 208.78Z" fill="#FEFFE8"/>
</g>
<g style="mix-blend-mode:screen" opacity="0.3">
<path d="M73.5124 230.055L92.5185 198.413C81.6101 196.34 71.416 194.865 62.2124 194.024L42.6304 226.6C52.983 227.148 63.2946 228.302 73.5124 230.055V230.055Z" fill="#FEFFE8"/>
</g>
<g style="mix-blend-mode:screen" opacity="0.3">
<path d="M175.754 222.476C170.647 220.479 165.367 218.533 159.915 216.636L141.738 247.115C147.221 248.919 152.555 250.778 157.738 252.69L175.754 222.476Z" fill="#FEFFE8"/>
</g>
</g>
<g style="mix-blend-mode:screen" opacity="0.3">
<path d="M17.1967 272.433C21.1591 275.244 25.7436 278.135 30.8695 281.049L55.4622 239.812C50.3248 237.22 45.5676 234.628 41.271 232.06L17.1967 272.433Z" fill="#FEFFE8"/>
</g>
<g style="mix-blend-mode:screen" opacity="0.3">
<path d="M227.991 248.348L226.701 250.444C236.527 257.563 241.526 264.013 240.063 268.874C238.278 274.783 227.266 277.375 210.402 276.937L206.947 282.628C229.984 284.022 245.408 280.981 247.769 273.171C249.681 266.617 242.171 257.805 227.991 248.348Z" fill="#FEFFE8"/>
</g>
<g style="mix-blend-mode:screen" opacity="0.3">
<path d="M34.2791 220.149C26.1122 213.78 22.0806 208.02 23.4168 203.585C25.0525 198.172 34.4404 195.522 48.9656 195.522L50.3364 193.218C30.2014 192.562 16.8626 195.718 14.6971 202.917C12.8886 208.919 19.0857 216.855 31.1114 225.46L34.2791 220.149Z" fill="#FEFFE8"/>
</g>
<path style="mix-blend-mode:multiply" d="M169.144 242.535C174.282 230.868 165.582 215.743 149.711 208.753C133.84 201.763 116.809 205.555 111.67 217.222C106.532 228.889 115.232 244.014 131.103 251.004C146.974 257.994 164.005 254.202 169.144 242.535Z" fill="url(#paint6_radial_371_2449)"/>
<path style="mix-blend-mode:multiply" d="M74.8945 245.076C86.899 245.076 96.6306 230.997 96.6306 213.63C96.6306 196.263 86.899 182.184 74.8945 182.184C62.89 182.184 53.1584 196.263 53.1584 213.63C53.1584 230.997 62.89 245.076 74.8945 245.076Z" fill="url(#paint7_radial_371_2449)"/>
<path d="M134.493 125.488C148.316 59.7039 146.645 3.69926 130.853 0.381836L178.725 10.4147C194.518 13.7207 196.142 69.7368 182.365 135.521C168.589 201.305 144.584 251.942 128.791 248.647L80.9189 238.615C96.7228 241.92 120.67 191.284 134.493 125.488Z" fill="url(#paint8_linear_371_2449)"/>
<path style="mix-blend-mode:multiply" d="M151.967 129.151C165.79 63.367 161.839 6.87857 146.035 3.5957L158.452 6.19896C174.245 9.50487 178.161 65.9933 164.373 131.754C150.585 197.515 124.333 247.715 108.53 244.397L96.1238 241.805C111.916 245.111 138.179 194.947 151.967 129.151Z" fill="url(#paint9_linear_371_2449)"/>
<path d="M153.407 129.462C167.23 63.6775 163.279 7.1776 147.475 3.90625L159.892 6.50951C175.684 9.81542 179.601 66.3038 165.813 132.065C152.025 197.826 125.762 248.025 109.969 244.708L97.5636 242.116C113.356 245.41 139.619 195.246 153.407 129.462Z" fill="url(#paint10_linear_371_2449)"/>
<path style="mix-blend-mode:multiply" d="M153.407 129.462C167.23 63.6775 163.279 7.1776 147.475 3.90625L159.892 6.50951C175.684 9.81542 179.601 66.3038 165.813 132.065C152.025 197.826 125.762 248.025 109.969 244.708L97.5636 242.116C113.356 245.41 139.619 195.246 153.407 129.462Z" fill="url(#paint11_linear_371_2449)"/>
<path d="M142.948 27.2435C131.36 47.4706 119.495 81.3821 111.259 120.627C103.023 159.871 100.294 195.707 102.793 218.871C94.9833 232.521 87.2887 239.95 80.9073 238.614C65.115 235.308 63.4908 179.292 77.2674 113.508C91.0439 47.724 115.038 -2.92434 130.83 0.381571C137.2 1.71776 141.266 11.6124 142.948 27.2435Z" fill="url(#paint12_linear_371_2449)"/>
<path d="M80.9191 238.614C96.7229 241.92 120.694 191.283 134.482 125.488C148.27 59.6921 146.634 3.69903 130.842 0.381602C115.049 -2.93583 91.0672 47.7241 77.2791 113.508C63.491 179.292 65.1267 235.308 80.9191 238.614ZM80.8384 229.86C67.0964 226.98 66.3477 175.065 79.1682 113.9C91.9887 52.7347 113.506 5.48445 127.259 8.36416C141.013 11.2439 141.75 63.1708 128.941 124.336C116.132 185.501 94.5919 232.74 80.8384 229.86V229.86Z" fill="url(#paint13_radial_371_2449)"/>
<g style="mix-blend-mode:screen" opacity="0.3">
<g style="mix-blend-mode:screen" opacity="0.3">
<path d="M190.843 77.3047C189.602 93.1499 187.499 108.916 184.542 124.532L134.286 126.386C134.355 126.075 134.424 125.776 134.482 125.465C137.834 109.488 140.241 94.0876 141.819 79.8734L190.843 77.3047Z" fill="#FEFFE8"/>
</g>
<g style="mix-blend-mode:screen" opacity="0.3">
<path d="M128.791 248.648L80.9189 238.615C94.6609 241.494 114.577 203.574 128.607 150.38L179.359 148.883C165.294 208.021 143.501 251.723 128.791 248.648Z" fill="#FEFFE8"/>
</g>
</g>
<g style="mix-blend-mode:screen" opacity="0.3">
<g style="mix-blend-mode:screen" opacity="0.3">
<path d="M67.9256 195.038C67.9051 184.494 68.428 173.956 69.4922 163.465L104.394 162.129C103.047 173.463 102.252 184.095 101.998 193.737L67.9256 195.038Z" fill="#FEFFE8"/>
</g>
<g style="mix-blend-mode:screen" opacity="0.3">
<path d="M78.2234 109.108C80.3889 99.167 82.8309 89.5948 85.3651 80.541L121.88 79.0205C119.138 88.0052 116.535 97.5889 114.162 107.61L78.2234 109.108Z" fill="#FEFFE8"/>
</g>
<g style="mix-blend-mode:screen" opacity="0.3">
<path d="M126.43 65.037L89.5696 66.569C92.9561 55.9947 96.55 46.3419 100.213 37.864L138.225 36.2744C133.739 45.6251 129.801 55.2289 126.43 65.037V65.037Z" fill="#FEFFE8"/>
</g>
<g style="mix-blend-mode:screen" opacity="0.3">
<path d="M70.886 151.187C71.5886 145.761 72.395 140.186 73.3395 134.484L108.806 133.125C107.769 138.804 106.836 144.379 106.041 149.839L70.886 151.187Z" fill="#FEFFE8"/>
</g>
</g>
<g style="mix-blend-mode:screen" opacity="0.3">
<path d="M190.67 35.8945C191.235 40.7209 191.58 46.1348 191.673 52.0209L143.708 53.8754C143.892 48.116 143.881 42.7137 143.708 37.7491L190.67 35.8945Z" fill="#FEFFE8"/>
</g>
<g style="mix-blend-mode:screen" opacity="0.3">
<path d="M68.5823 209.437L71.0473 209.298C72.5908 221.336 75.8622 228.823 80.8383 229.86C86.8857 231.127 94.4306 222.706 102.091 207.663L108.76 207.306C98.969 228.178 88.9015 240.284 80.919 238.614C74.2496 237.22 70.1028 226.404 68.5823 209.437Z" fill="#FEFFE8"/>
</g>
<g style="mix-blend-mode:screen" opacity="0.3">
<path d="M136.601 25.8269C134.908 15.6212 131.797 9.32036 127.259 8.3643C121.718 7.21241 114.922 14.1928 107.93 26.9327L105.258 27.0363C114.323 9.04391 123.469 -1.16178 130.841 0.38174C136.981 1.67185 140.978 10.91 142.763 25.5965L136.601 25.8269Z" fill="#FEFFE8"/>
</g>
<defs>
<linearGradient id="paint0_linear_371_2449" x1="21769.5" y1="50985.2" x2="71830.1" y2="66070.7" gradientUnits="userSpaceOnUse">
<stop stop-color="#B07515"/>
<stop offset="0.09" stop-color="#E1BA60"/>
<stop offset="0.14" stop-color="#F5D77F"/>
<stop offset="0.26" stop-color="#FFFFD7"/>
<stop offset="0.36" stop-color="#F5D77F"/>
<stop offset="0.5" stop-color="#D3A64A"/>
<stop offset="0.61" stop-color="#F5D77F"/>
<stop offset="0.74" stop-color="#FFFFD7"/>
<stop offset="0.84" stop-color="#F5D77F"/>
<stop offset="1" stop-color="#B07515"/>
</linearGradient>
<linearGradient id="paint1_linear_371_2449" x1="23627.8" y1="39660.2" x2="71580.2" y2="54110.4" gradientUnits="userSpaceOnUse">
<stop stop-color="#D48B02"/>
<stop offset="0.01" stop-color="#D48D04"/>
<stop offset="0.14" stop-color="#D0AA23"/>
<stop offset="0.25" stop-color="#CFB83C"/>
<stop offset="0.36" stop-color="#D0AA23"/>
<stop offset="0.49" stop-color="#D48B02"/>
<stop offset="0.5" stop-color="#D48D04"/>
<stop offset="0.61" stop-color="#D0AA23"/>
<stop offset="0.73" stop-color="#CFB83C"/>
<stop offset="0.84" stop-color="#D0AA23"/>
<stop offset="1" stop-color="#D48B02"/>
</linearGradient>
<linearGradient id="paint2_linear_371_2449" x1="23581.6" y1="39772.1" x2="71517.6" y2="54217.5" gradientUnits="userSpaceOnUse">
<stop stop-color="#B07515"/>
<stop offset="0.09" stop-color="#E1BA60"/>
<stop offset="0.14" stop-color="#F5D77F"/>
<stop offset="0.26" stop-color="#FFFFD7"/>
<stop offset="0.36" stop-color="#F5D77F"/>
<stop offset="0.5" stop-color="#D3A64A"/>
<stop offset="0.61" stop-color="#F5D77F"/>
<stop offset="0.74" stop-color="#FFFFD7"/>
<stop offset="0.84" stop-color="#F5D77F"/>
<stop offset="1" stop-color="#B07515"/>
</linearGradient>
<linearGradient id="paint3_linear_371_2449" x1="23581.6" y1="39772.1" x2="71517.6" y2="54217.5" gradientUnits="userSpaceOnUse">
<stop stop-color="#FFA803"/>
<stop offset="0.03" stop-color="#FEB00B"/>
<stop offset="0.14" stop-color="#FBCD2A"/>
<stop offset="0.25" stop-color="#FADE49"/>
<stop offset="0.36" stop-color="#FBCD2A"/>
<stop offset="0.49" stop-color="#FFA803"/>
<stop offset="0.51" stop-color="#FEB00B"/>
<stop offset="0.61" stop-color="#FBCD2A"/>
<stop offset="0.73" stop-color="#FADE49"/>
<stop offset="0.84" stop-color="#FBCD2A"/>
<stop offset="1" stop-color="#FFA803"/>
</linearGradient>
<linearGradient id="paint4_linear_371_2449" x1="24475.1" y1="35196.5" x2="71743.3" y2="49440.6" gradientUnits="userSpaceOnUse">
<stop stop-color="#B07515"/>
<stop offset="0.09" stop-color="#E1BA60"/>
<stop offset="0.14" stop-color="#F5D77F"/>
<stop offset="0.26" stop-color="#FFFFD7"/>
<stop offset="0.49" stop-color="#B07515"/>
<stop offset="0.59" stop-color="#D2B169"/>
<stop offset="0.69" stop-color="#F2E9B8"/>
<stop offset="0.74" stop-color="#FFFFD7"/>
<stop offset="0.84" stop-color="#F5D77F"/>
<stop offset="1" stop-color="#B07515"/>
</linearGradient>
<radialGradient id="paint5_radial_371_2449" cx="0" cy="0" r="1" gradientUnits="userSpaceOnUse" gradientTransform="translate(47979.3 42771) rotate(16.77) scale(17952.4 6900.92)">
<stop stop-color="#D99E3F"/>
<stop offset="0.18" stop-color="white"/>
<stop offset="0.36" stop-color="#FAE6AA"/>
<stop offset="0.41" stop-color="#F0D18B"/>
<stop offset="0.51" stop-color="#D99E3F"/>
<stop offset="0.68" stop-color="#FAE6AA"/>
<stop offset="0.82" stop-color="white"/>
<stop offset="1" stop-color="#D99E3F"/>
</radialGradient>
<radialGradient id="paint6_radial_371_2449" cx="0" cy="0" r="1" gradientUnits="userSpaceOnUse" gradientTransform="translate(10448.5 33037.3) rotate(23.77) scale(1262.36 1262.34)">
<stop stop-color="#603913"/>
<stop offset="0.16" stop-color="#886B4E"/>
<stop offset="0.32" stop-color="#AC9783"/>
<stop offset="0.47" stop-color="#CABCB0"/>
<stop offset="0.62" stop-color="#E1D9D2"/>
<stop offset="0.76" stop-color="#F1EEEB"/>
<stop offset="0.89" stop-color="#FCFBFA"/>
<stop offset="1" stop-color="white"/>
</radialGradient>
<radialGradient id="paint7_radial_371_2449" cx="0" cy="0" r="1" gradientUnits="userSpaceOnUse" gradientTransform="translate(9227.35 25778.1) scale(820.319 1720.84)">
<stop stop-color="#603913"/>
<stop offset="0.16" stop-color="#886B4E"/>
<stop offset="0.32" stop-color="#AC9783"/>
<stop offset="0.47" stop-color="#CABCB0"/>
<stop offset="0.62" stop-color="#E1D9D2"/>
<stop offset="0.76" stop-color="#F1EEEB"/>
<stop offset="0.89" stop-color="#FCFBFA"/>
<stop offset="1" stop-color="white"/>
</radialGradient>
<linearGradient id="paint8_linear_371_2449" x1="58363.1" y1="30131.7" x2="53446" y2="53078.2" gradientUnits="userSpaceOnUse">
<stop stop-color="#B07515"/>
<stop offset="0.09" stop-color="#E1BA60"/>
<stop offset="0.14" stop-color="#F5D77F"/>
<stop offset="0.26" stop-color="#FFFFD7"/>
<stop offset="0.36" stop-color="#F5D77F"/>
<stop offset="0.5" stop-color="#D3A64A"/>
<stop offset="0.61" stop-color="#F5D77F"/>
<stop offset="0.74" stop-color="#FFFFD7"/>
<stop offset="0.84" stop-color="#F5D77F"/>
<stop offset="1" stop-color="#B07515"/>
</linearGradient>
<linearGradient id="paint9_linear_371_2449" x1="57317.8" y1="24509.2" x2="53914.8" y2="40390.1" gradientUnits="userSpaceOnUse">
<stop stop-color="#D48B02"/>
<stop offset="0.01" stop-color="#D48D04"/>
<stop offset="0.14" stop-color="#D0AA23"/>
<stop offset="0.25" stop-color="#CFB83C"/>
<stop offset="0.36" stop-color="#D0AA23"/>
<stop offset="0.49" stop-color="#D48B02"/>
<stop offset="0.5" stop-color="#D48D04"/>
<stop offset="0.61" stop-color="#D0AA23"/>
<stop offset="0.73" stop-color="#CFB83C"/>
<stop offset="0.84" stop-color="#D0AA23"/>
<stop offset="1" stop-color="#D48B02"/>
</linearGradient>
<linearGradient id="paint10_linear_371_2449" x1="57620.1" y1="24575.4" x2="54217" y2="40456.4" gradientUnits="userSpaceOnUse">
<stop stop-color="#B07515"/>
<stop offset="0.09" stop-color="#E1BA60"/>
<stop offset="0.14" stop-color="#F5D77F"/>
<stop offset="0.26" stop-color="#FFFFD7"/>
<stop offset="0.36" stop-color="#F5D77F"/>
<stop offset="0.5" stop-color="#D3A64A"/>
<stop offset="0.61" stop-color="#F5D77F"/>
<stop offset="0.74" stop-color="#FFFFD7"/>
<stop offset="0.84" stop-color="#F5D77F"/>
<stop offset="1" stop-color="#B07515"/>
</linearGradient>
<linearGradient id="paint11_linear_371_2449" x1="57620.1" y1="24575.4" x2="54217" y2="40456.4" gradientUnits="userSpaceOnUse">
<stop stop-color="#FFA803"/>
<stop offset="0.03" stop-color="#FEB00B"/>
<stop offset="0.14" stop-color="#FBCD2A"/>
<stop offset="0.25" stop-color="#FADE49"/>
<stop offset="0.36" stop-color="#FBCD2A"/>
<stop offset="0.49" stop-color="#FFA803"/>
<stop offset="0.51" stop-color="#FEB00B"/>
<stop offset="0.61" stop-color="#FBCD2A"/>
<stop offset="0.73" stop-color="#FADE49"/>
<stop offset="0.84" stop-color="#FBCD2A"/>
<stop offset="1" stop-color="#FFA803"/>
</linearGradient>
<linearGradient id="paint12_linear_371_2449" x1="47930.4" y1="22207.1" x2="44600.5" y2="37746.7" gradientUnits="userSpaceOnUse">
<stop stop-color="#B07515"/>
<stop offset="0.09" stop-color="#E1BA60"/>
<stop offset="0.14" stop-color="#F5D77F"/>
<stop offset="0.26" stop-color="#FFFFD7"/>
<stop offset="0.49" stop-color="#B07515"/>
<stop offset="0.59" stop-color="#D2B169"/>
<stop offset="0.69" stop-color="#F2E9B8"/>
<stop offset="0.74" stop-color="#FFFFD7"/>
<stop offset="0.84" stop-color="#F5D77F"/>
<stop offset="1" stop-color="#B07515"/>
</linearGradient>
<radialGradient id="paint13_radial_371_2449" cx="0" cy="0" r="1" gradientUnits="userSpaceOnUse" gradientTransform="translate(47420.8 30461.4) rotate(102.095) scale(5847.12 18370.6)">
<stop stop-color="#D99E3F"/>
<stop offset="0.18" stop-color="white"/>
<stop offset="0.36" stop-color="#FAE6AA"/>
<stop offset="0.41" stop-color="#F0D18B"/>
<stop offset="0.51" stop-color="#D99E3F"/>
<stop offset="0.68" stop-color="#FAE6AA"/>
<stop offset="0.82" stop-color="white"/>
<stop offset="1" stop-color="#D99E3F"/>
</radialGradient>
</defs>
</svg>
