<svg xmlns="http://www.w3.org/2000/svg" xml:space="preserve" width="36px" height="36px" version="1.1" style="fill-rule:evenodd; clip-rule:evenodd" viewBox="0 0 500 500" xmlns:xlink="http://www.w3.org/1999/xlink">
  <path d="M357 299c-22,-5 -43,-29 -46,-35 19,-23 45,-36 71,-53 7,-5 11,-10 10,-15 -1,-10 -13,-14 -21,-14 -26,1 -61,37 -75,55 -2,-6 -4,-11 -7,-16 -10,-22 -28,-25 -38,-7 -7,13 3,35 10,48l0 2c-16,7 -40,20 -56,20 -19,0 -16,-15 -10,-26 28,-51 67,-94 98,-153 6,-11 10,-22 12,-31 30,9 57,26 78,47 34,34 55,80 55,132 0,52 -21,98 -55,132 -34,34 -80,55 -132,55 -34,0 -66,-9 -93,-25 12,-43 20,-98 20,-112 16,19 49,9 62,0 2,-1 5,-3 9,-6 -1,2 -1,3 0,5 0,4 2,8 5,11 3,3 7,5 11,5 7,0 13,-3 17,-7 3,-4 9,-15 12,-19 5,6 43,48 80,23 13,-9 -8,-14 -17,-16zm-50 -236c2,-19 -5,-31 -16,-33 -16,-3 -30,7 -43,25 -53,1 -102,23 -137,58 -36,36 -58,85 -58,140 0,55 22,104 58,140 4,3 7,7 11,10 -5,20 -9,38 -7,48 1,8 5,15 14,15 9,0 18,-17 25,-40 29,16 62,25 97,25 55,0 104,-22 140,-58 36,-36 58,-85 58,-140 0,-55 -22,-104 -58,-140 -23,-23 -52,-40 -84,-50zm-66 4c-30,50 -51,137 -61,163 -38,44 -68,74 -68,79 1,6 4,8 8,8 20,0 37,-39 49,-48 -8,21 -30,76 -44,122 -2,-2 -4,-4 -6,-6 -34,-34 -55,-80 -55,-132 0,-52 21,-98 55,-132 32,-32 74,-52 122,-54zm30 13c-11,0 -59,108 -63,121 3,-5 75,-121 63,-121z"  fill="#BDBDBD"/>
</svg>
