<svg width="32" height="36" viewBox="0 0 36 36" fill="none" xmlns="http://www.w3.org/2000/svg">
<path fill-rule="evenodd" clip-rule="evenodd" d="M30.716 6.98109C27.4562 4.05282 22.963 2.24609 17.9858 2.24609C13.0229 2.24609 8.53022 4.05282 5.27078 6.98109C2.01106 9.9096 0 13.9458 0 18.4046C0 22.8762 2.01133 26.9126 5.27078 29.8409C8.53022 32.7557 13.0231 34.5761 17.9858 34.5761C22.963 34.5761 27.4565 32.7555 30.716 29.8409C33.9602 26.9123 35.9718 22.8762 35.9718 18.4046C35.9718 13.9458 33.9602 9.9096 30.716 6.98109ZM17.9859 2.90593C22.7576 2.90593 27.0743 4.64631 30.1872 7.44285C33.3144 10.2531 35.2381 14.1312 35.2381 18.4047C35.2381 22.6918 33.3144 26.5699 30.1872 29.3655C27.0746 32.1757 22.7579 33.9171 17.9859 33.9171C13.2291 33.9171 8.9124 32.1757 5.78488 29.3655C2.67178 26.5699 0.734025 22.6918 0.734025 18.4047C0.734025 14.1312 2.67205 10.2531 5.78488 7.44285C8.9124 4.64631 13.2291 2.90593 17.9859 2.90593Z" fill="#BDBDBD"/>
<path fill-rule="evenodd" clip-rule="evenodd" d="M28.9429 12.6094C29.6909 12.5957 30.7759 12.9258 30.893 13.7311C30.9519 14.1129 30.6582 14.522 29.9986 14.9313C29.5742 15.1767 29.1529 15.4132 28.7371 15.6466C26.7834 16.7433 24.9518 17.7714 23.4887 19.338C23.7238 19.7861 25.6441 21.7784 27.6529 22.2138C28.5036 22.3722 30.4825 22.7939 29.2218 23.5592C26.1001 25.4482 22.9017 22.5583 22.0439 21.7832C21.9792 21.7248 21.9278 21.6783 21.8907 21.6469C21.7488 21.8083 21.5493 22.1313 21.3529 22.4493C21.1647 22.7541 20.9793 23.0544 20.8502 23.203C20.4544 23.5465 19.9265 23.7312 19.2961 23.7438C18.8854 23.7438 18.5478 23.6256 18.2697 23.3748C17.9909 23.1237 17.8297 22.8074 17.7711 22.4512C17.7564 22.3192 17.7564 22.2002 17.7857 22.0557C17.7038 22.1092 17.6267 22.1601 17.5541 22.208C17.3403 22.349 17.1656 22.4642 17.0233 22.5437C15.8209 23.2289 12.8009 24.0868 11.3052 22.53C11.3052 24.535 9.20855 35.9861 6.86284 35.9861C6.01233 35.9861 5.63143 35.3789 5.52892 34.7063C5.15789 32.2398 8.59171 24.1748 10.0696 20.7036C10.2278 20.3321 10.3635 20.0132 10.4698 19.7595C10.0999 20.0102 9.66686 20.5605 9.18463 21.1733C8.27191 22.3332 7.18299 23.717 6.01233 23.717C5.60243 23.717 5.36735 23.4797 5.3088 23.0315C5.25985 22.7491 6.47374 21.5543 8.34305 19.7144C9.27182 18.8003 10.3623 17.7268 11.5402 16.527C11.7333 16.0303 11.9863 15.2678 12.2949 14.3374C13.9779 9.26468 17.316 -0.796917 21.6272 0.0503239C23.2691 0.367454 24.002 2.5437 21.8322 6.2512C20.3203 8.80315 18.6015 11.0164 16.9353 13.1618C15.4668 15.0527 14.0392 16.8909 12.8302 18.862C12.3026 19.7065 12.0681 21.0126 13.7834 21.0126C14.9364 21.0126 16.581 20.2899 17.9434 19.6912C18.2783 19.544 18.5961 19.4044 18.8854 19.2848L18.9293 19.1794C18.2989 18.0577 17.3752 16.3162 18.0349 15.2082C18.9147 13.7701 20.5422 14.0072 21.5098 15.7624C21.7295 16.1715 21.9499 16.6196 22.1402 17.1341C23.357 15.5907 26.6264 12.6494 28.9429 12.6094ZM19.7798 4.19252C20.938 4.19252 14.3696 13.7438 14.047 14.1265C14.3989 13.0314 18.8268 4.19252 19.7798 4.19252Z" fill="#BDBDBD"/>
</svg>
