<svg width="24" height="24" viewBox="0 0 24 24" fill="none" xmlns="http://www.w3.org/2000/svg">
<path d="M16.9267 16.9669C16.7789 16.871 16.5992 16.8376 16.4268 16.8738C16.2544 16.91 16.1034 17.013 16.0067 17.1602C15.0667 18.6002 13.34 20.3669 11.8 20.9602C10.26 21.5535 9.05334 21.3402 8.57334 20.9602C8.36667 20.7802 7.82667 20.2935 8.28667 18.6335C8.59334 17.5269 10.5 12.3135 10.9533 11.0469L9.50001 11.2335C9.04001 12.4735 7.30667 17.1269 6.99334 18.2869C6.54001 19.9469 6.76667 21.1535 7.72001 21.9935C8.38612 22.4609 9.18688 22.6974 10 22.6669C10.789 22.6555 11.569 22.4972 12.3 22.2002C14.16 21.4735 16.1133 19.4535 17.14 17.8869C17.1866 17.8125 17.218 17.7297 17.2324 17.6431C17.2469 17.5566 17.2442 17.4681 17.2243 17.3826C17.2045 17.2971 17.168 17.2164 17.1169 17.1451C17.0659 17.0737 17.0012 17.0132 16.9267 16.9669Z" fill="currentColor"/>
<path d="M12.8667 7.3335C13.46 7.3335 14.04 7.15755 14.5334 6.82791C15.0267 6.49826 15.4112 6.02973 15.6383 5.48155C15.8654 4.93337 15.9248 4.33017 15.809 3.74823C15.6933 3.16628 15.4075 2.63173 14.988 2.21218C14.5684 1.79262 14.0339 1.5069 13.4519 1.39114C12.87 1.27539 12.2668 1.3348 11.7186 1.56186C11.1704 1.78892 10.7019 2.17344 10.3723 2.66679C10.0426 3.16013 9.86667 3.74015 9.86667 4.3335C9.86667 5.12915 10.1827 5.89221 10.7453 6.45482C11.308 7.01743 12.071 7.3335 12.8667 7.3335ZM12.8667 2.66683C13.1963 2.66683 13.5185 2.76458 13.7926 2.94771C14.0667 3.13085 14.2803 3.39115 14.4065 3.69569C14.5326 4.00024 14.5656 4.33535 14.5013 4.65865C14.437 4.98195 14.2783 5.27892 14.0452 5.51201C13.8121 5.7451 13.5151 5.90383 13.1918 5.96814C12.8685 6.03245 12.5334 5.99944 12.2289 5.8733C11.9243 5.74715 11.664 5.53353 11.4809 5.25945C11.2978 4.98537 11.2 4.66313 11.2 4.3335C11.2 3.89147 11.3756 3.46755 11.6882 3.15499C12.0007 2.84243 12.4246 2.66683 12.8667 2.66683Z" fill="currentColor"/>
<path d="M7.87334 9.99984C7.91334 9.99984 12.0533 9.45317 13.0267 9.33317C13.46 9.26651 13.7867 9.33317 13.8933 9.43317C14 9.53317 14.0333 9.96651 13.8467 10.5532C13.44 11.7932 11.3867 17.8865 10.7867 19.6932C11.0799 19.633 11.3676 19.5483 11.6467 19.4398C11.9136 19.3295 12.1701 19.1956 12.4133 19.0398C13.2333 16.6665 14.7667 12.0665 15.1133 11.0132C15.46 9.95984 15.3733 9.15984 14.9133 8.61317C14.6509 8.34711 14.3224 8.15564 13.9616 8.0584C13.6008 7.96117 13.2206 7.96166 12.86 8.05984C11.9067 8.15984 7.88001 8.68651 7.70668 8.72651C7.52987 8.74949 7.36943 8.84178 7.26066 8.98305C7.15188 9.12433 7.10369 9.30303 7.12668 9.47984C7.14966 9.65665 7.24194 9.81709 7.38322 9.92586C7.5245 10.0346 7.7032 10.0828 7.88001 10.0598L7.87334 9.99984Z" fill="currentColor"/>
</svg>
