<svg width="20" height="20" viewBox="0 0 20 20" fill="none" xmlns="http://www.w3.org/2000/svg">
<path d="M14.1056 14.1384C13.9825 14.0585 13.8327 14.0306 13.6891 14.0608C13.5454 14.091 13.4195 14.1768 13.339 14.2995C12.5556 15.4995 11.1167 16.9717 9.83341 17.4662C8.55008 17.9606 7.54452 17.7829 7.14452 17.4662C6.9723 17.3162 6.5223 16.9106 6.90563 15.5273C7.16119 14.6051 8.75008 10.2606 9.12785 9.20508L7.91674 9.36063C7.53341 10.394 6.08896 14.2717 5.82785 15.2384C5.45008 16.6217 5.63896 17.6273 6.43341 18.3273C6.9885 18.7168 7.6558 18.9138 8.33341 18.8884C8.9909 18.8789 9.64088 18.7471 10.2501 18.4995C11.8001 17.894 13.4279 16.2106 14.2834 14.9051C14.3222 14.8431 14.3484 14.7741 14.3604 14.702C14.3725 14.6298 14.3702 14.5561 14.3537 14.4848C14.3372 14.4136 14.3068 14.3463 14.2642 14.2869C14.2216 14.2275 14.1677 14.177 14.1056 14.1384Z" fill="#003AD2"/>
<path d="M10.7222 6.11133C11.2166 6.11133 11.7 5.96471 12.1111 5.69C12.5222 5.4153 12.8426 5.02485 13.0319 4.56804C13.2211 4.11122 13.2706 3.60856 13.1741 3.1236C13.0777 2.63865 12.8396 2.19319 12.4899 1.84356C12.1403 1.49393 11.6948 1.25583 11.2099 1.15937C10.7249 1.0629 10.2223 1.11241 9.76546 1.30163C9.30864 1.49085 8.9182 1.81128 8.64349 2.2224C8.36879 2.63353 8.22217 3.11688 8.22217 3.61133C8.22217 4.27437 8.48556 4.91025 8.9544 5.3791C9.42324 5.84794 10.0591 6.11133 10.7222 6.11133ZM10.7222 2.22244C10.9969 2.22244 11.2654 2.3039 11.4938 2.45651C11.7222 2.60912 11.9002 2.82604 12.0053 3.07982C12.1105 3.33361 12.138 3.61287 12.0844 3.88229C12.0308 4.15171 11.8985 4.39918 11.7043 4.59342C11.51 4.78766 11.2625 4.91994 10.9931 4.97353C10.7237 5.02712 10.4444 4.99962 10.1907 4.8945C9.93688 4.78937 9.71996 4.61136 9.56735 4.38295C9.41474 4.15455 9.33328 3.88603 9.33328 3.61133C9.33328 3.24297 9.47961 2.8897 9.74007 2.62924C10.0005 2.36877 10.3538 2.22244 10.7222 2.22244Z" fill="#003AD2"/>
<path d="M6.56123 8.33361C6.59456 8.33361 10.0446 7.87805 10.8557 7.77805C11.2168 7.7225 11.489 7.77805 11.5779 7.86139C11.6668 7.94472 11.6946 8.30583 11.539 8.79472C11.2001 9.82805 9.489 14.9058 8.989 16.4114C9.23339 16.3613 9.47313 16.2906 9.70567 16.2003C9.92808 16.1083 10.1419 15.9967 10.3446 15.8669C11.0279 13.8892 12.3057 10.0558 12.5946 9.17805C12.8834 8.30027 12.8112 7.63361 12.4279 7.17805C12.2092 6.95633 11.9355 6.79677 11.6348 6.71574C11.3341 6.63471 11.0173 6.63513 10.7168 6.71694C9.92234 6.80027 6.56678 7.23916 6.42234 7.2725C6.27499 7.29165 6.1413 7.36855 6.05065 7.48628C5.96001 7.60402 5.91985 7.75293 5.939 7.90027C5.95816 8.04762 6.03506 8.18132 6.15279 8.27196C6.27052 8.3626 6.41944 8.40276 6.56678 8.38361L6.56123 8.33361Z" fill="#003AD2"/>
</svg>
