<svg width="36" height="37" viewBox="0 0 36 37" fill="none" xmlns="http://www.w3.org/2000/svg">
<circle cx="18" cy="18.5" r="17" stroke="#FF0101" stroke-width="2"/>
<path d="M26 16.373V23.5C26 24.163 25.7366 24.7989 25.2678 25.2678C24.7989 25.7366 24.163 26 23.5 26H12.5C11.837 26 11.2011 25.7366 10.7322 25.2678C10.2634 24.7989 10 24.163 10 23.5V16.373L17.746 20.931C17.823 20.9764 17.9107 21.0003 18 21.0003C18.0893 21.0003 18.177 20.9764 18.254 20.931L26 16.373ZM23.5 13C24.1151 12.9999 24.7087 13.2266 25.1672 13.6367C25.6257 14.0469 25.9168 14.6116 25.985 15.223L18 19.92L10.015 15.223C10.0832 14.6116 10.3743 14.0469 10.8328 13.6367C11.2913 13.2266 11.8849 12.9999 12.5 13H23.5Z" fill="#FF0101"/>
</svg>
