<svg width="24" height="24" viewBox="0 0 24 24" fill="none" xmlns="http://www.w3.org/2000/svg">
<path d="M17.0721 13.6162C16.4499 14.8774 15.6068 16.1337 14.7446 17.2619C13.9268 18.3254 13.0523 19.3442 12.125 20.3137C11.1977 19.3442 10.3232 18.3254 9.50538 17.2619C8.64325 16.1337 7.80013 14.8774 7.17788 13.6162C6.5485 12.3421 6.1875 11.1486 6.1875 10.125C6.1875 8.55028 6.81306 7.04005 7.92655 5.92655C9.04005 4.81306 10.5503 4.1875 12.125 4.1875C13.6997 4.1875 15.2099 4.81306 16.3234 5.92655C17.4369 7.04005 18.0625 8.55028 18.0625 10.125C18.0625 11.1486 17.7003 12.3421 17.0721 13.6162ZM12.125 22C12.125 22 19.25 15.2479 19.25 10.125C19.25 8.23533 18.4993 6.42306 17.1631 5.08686C15.8269 3.75067 14.0147 3 12.125 3C10.2353 3 8.42306 3.75067 7.08686 5.08686C5.75067 6.42306 5 8.23533 5 10.125C5 15.2479 12.125 22 12.125 22Z" fill="currentColor"/>
<path d="M12.125 12.5C11.4951 12.5 10.891 12.2498 10.4456 11.8044C10.0002 11.359 9.75 10.7549 9.75 10.125C9.75 9.49511 10.0002 8.89102 10.4456 8.44562C10.891 8.00022 11.4951 7.75 12.125 7.75C12.7549 7.75 13.359 8.00022 13.8044 8.44562C14.2498 8.89102 14.5 9.49511 14.5 10.125C14.5 10.7549 14.2498 11.359 13.8044 11.8044C13.359 12.2498 12.7549 12.5 12.125 12.5ZM12.125 13.6875C13.0698 13.6875 13.976 13.3122 14.6441 12.6441C15.3122 11.976 15.6875 11.0698 15.6875 10.125C15.6875 9.18017 15.3122 8.27403 14.6441 7.60593C13.976 6.93783 13.0698 6.5625 12.125 6.5625C11.1802 6.5625 10.274 6.93783 9.60593 7.60593C8.93783 8.27403 8.5625 9.18017 8.5625 10.125C8.5625 11.0698 8.93783 11.976 9.60593 12.6441C10.274 13.3122 11.1802 13.6875 12.125 13.6875Z" fill="currentColor"/>
</svg>
