<svg width="36" height="37" viewBox="0 0 36 37" fill="none" xmlns="http://www.w3.org/2000/svg">
<circle cx="18" cy="18.5" r="17" stroke="#FF0101" stroke-width="2"/>
<path d="M22.6169 21.9668C23.7877 22.3725 24.9891 22.7135 26.2161 22.9884C26.348 23.0086 26.4705 23.0552 26.5765 23.1254C26.6825 23.1955 26.77 23.2879 26.8337 23.3973C26.8975 23.5066 26.9364 23.6306 26.9481 23.7623C26.9598 23.8939 26.9441 24.0305 26.9019 24.1642L26.8012 24.8654C26.7914 25.1151 26.7175 25.3679 26.5862 25.6006C26.4549 25.8333 26.2704 26.0385 26.0497 26.1973C25.3662 26.8039 24.5896 27.2935 23.7613 27.6398C21.4552 28.27 19.1466 26.8752 17.4881 25.6411C15.3607 24.0701 13.625 22.0643 12.3747 19.732C11.3859 17.9079 10.3301 15.4087 11.2525 13.1834C11.7005 12.4031 12.2849 11.6921 12.9744 11.0882C13.1573 10.8899 13.3824 10.7333 13.6282 10.6333C13.874 10.5333 14.1326 10.4932 14.3795 10.5167L15.0879 10.5099C15.3655 10.4768 15.6291 10.55 15.8229 10.7141C16.0168 10.8783 16.1256 11.1204 16.1264 11.3894C16.3243 12.8511 16.4512 13.9049 16.6708 15.0921C16.7615 15.5849 16.5733 15.7046 16.1363 15.9971L15.4322 16.4661C15.3118 16.5185 15.2004 16.5938 15.1049 16.6869C15.0095 16.7801 14.9322 16.889 14.8782 17.0068C14.8242 17.1246 14.7945 17.2486 14.7911 17.3708C14.7878 17.4929 14.8108 17.6104 14.8587 17.7158C15.7734 20.1729 17.5006 22.1688 19.7993 23.4247C19.8967 23.4873 20.0101 23.5263 20.1317 23.5392C20.2533 23.5521 20.3803 23.5386 20.5041 23.4996C20.628 23.4606 20.7458 23.397 20.8496 23.313C20.9534 23.2291 21.0408 23.1268 21.1059 23.013L21.6612 22.3739C22.005 21.9749 22.1338 21.8255 22.6193 21.9585L22.6169 21.9668Z" fill="#FF0101"/>
</svg>
