<svg width="24" height="24" viewBox="0 0 24 24" fill="none" xmlns="http://www.w3.org/2000/svg">
<path d="M10.1916 5.8814C9.762 5.9654 9.2916 6.2438 8.922 6.8966C8.88308 6.96515 8.83104 7.02536 8.76884 7.07379C8.70665 7.12223 8.63552 7.15794 8.55953 7.17889C8.48353 7.19984 8.40415 7.20562 8.32593 7.19589C8.2477 7.18616 8.17215 7.16112 8.1036 7.1222C8.03505 7.08327 7.97484 7.03123 7.9264 6.96903C7.87797 6.90684 7.84226 6.83571 7.82131 6.75972C7.80036 6.68372 7.79458 6.60435 7.80431 6.52612C7.81404 6.44789 7.83908 6.37235 7.878 6.3038C8.4072 5.3726 9.1596 4.8602 9.9612 4.7042C10.7071 4.56333 11.4785 4.71873 12.1116 5.1374C12.6924 5.5214 13.1616 6.149 13.176 6.9014C13.1916 7.6874 12.714 8.3966 11.8332 8.9174C11.2356 9.2702 11.0028 9.51019 10.9032 9.6698C10.8192 9.8042 10.8 9.9266 10.8 10.2002C10.8 10.3593 10.7368 10.5119 10.6243 10.6245C10.5117 10.737 10.3591 10.8002 10.2 10.8002C10.0409 10.8002 9.88826 10.737 9.77574 10.6245C9.66322 10.5119 9.6 10.3593 9.6 10.2002C9.6 9.8738 9.6168 9.4682 9.8844 9.0362C10.1364 8.6318 10.5672 8.2718 11.2224 7.8842C11.8644 7.5038 11.9808 7.1426 11.9772 6.9266C11.9712 6.6782 11.8068 6.3746 11.4492 6.1382C11.079 5.89325 10.6282 5.80122 10.1916 5.8814ZM10.5 13.8002C10.7387 13.8002 10.9676 13.7054 11.1364 13.5366C11.3052 13.3678 11.4 13.1389 11.4 12.9002C11.4 12.6615 11.3052 12.4326 11.1364 12.2638C10.9676 12.095 10.7387 12.0002 10.5 12.0002C10.2613 12.0002 10.0324 12.095 9.86361 12.2638C9.69482 12.4326 9.6 12.6615 9.6 12.9002C9.6 13.1389 9.69482 13.3678 9.86361 13.5366C10.0324 13.7054 10.2613 13.8002 10.5 13.8002ZM10.2 1.2002C8.83979 1.19988 7.50314 1.55527 6.3227 2.2311C5.14226 2.90693 4.15908 3.87971 3.47072 5.05289C2.78236 6.22607 2.41277 7.55886 2.39861 8.919C2.38445 10.2791 2.72622 11.6193 3.39 12.8066L2.436 15.305C2.3566 15.5127 2.33646 15.7383 2.37783 15.9568C2.41919 16.1753 2.52044 16.3779 2.67028 16.5422C2.82012 16.7065 3.01266 16.8259 3.2264 16.8871C3.44015 16.9484 3.66671 16.949 3.8808 16.889L6.8652 16.0526C7.92239 16.5521 9.07835 16.8076 10.2476 16.8C11.4168 16.7925 12.5694 16.5222 13.6201 16.0092C14.6707 15.4961 15.5926 14.7534 16.3175 13.8359C17.0424 12.9185 17.5518 11.8498 17.8079 10.709C18.0641 9.56813 18.0605 8.38429 17.7974 7.24502C17.5343 6.10575 17.0184 5.04021 16.2879 4.12722C15.5574 3.21423 14.631 2.47714 13.5772 1.97049C12.5235 1.46384 11.3693 1.20058 10.2 1.2002ZM3.6 9.0002C3.60054 7.56191 4.07089 6.16317 4.93949 5.01679C5.8081 3.87041 7.02741 3.03915 8.4119 2.64948C9.7964 2.25981 11.2703 2.33308 12.6093 2.85812C13.9483 3.38316 15.0792 4.33124 15.8298 5.5581C16.5805 6.78497 16.9098 8.22346 16.7677 9.65471C16.6256 11.086 16.0199 12.4316 15.0426 13.4869C14.0654 14.5422 12.7702 15.2495 11.3541 15.501C9.93797 15.7525 8.47845 15.5345 7.1976 14.8802L6.9888 14.7722L3.5568 15.7334L4.7196 12.6902L4.566 12.4382C3.93258 11.4034 3.59821 10.2134 3.6 9.0002ZM13.7556 20.4002C12.6328 20.4014 11.523 20.1597 10.5025 19.6916C9.48189 19.2234 8.57471 18.54 7.8432 17.6882C8.53238 17.8749 9.24142 17.9784 9.9552 17.9966C11.0668 18.7817 12.3947 19.2023 13.7556 19.2002C14.838 19.2002 15.858 18.9398 16.758 18.4802L16.9668 18.3722L20.3988 19.3334L19.236 16.2902L19.3896 16.0382C20.0016 15.0374 20.3556 13.8614 20.3556 12.6002C20.3575 11.2677 19.954 9.96607 19.1988 8.8682C19.189 8.15431 19.0943 7.44413 18.9168 6.7526C19.7471 7.48368 20.4119 8.38341 20.8669 9.39177C21.322 10.4001 21.5567 11.4939 21.5556 12.6002C21.5556 13.9814 21.1956 15.2798 20.5644 16.4066L21.5196 18.905C21.5989 19.1126 21.619 19.3381 21.5776 19.5564C21.5363 19.7747 21.4352 19.9773 21.2855 20.1415C21.1358 20.3057 20.9435 20.4251 20.73 20.4865C20.5164 20.5479 20.29 20.5487 20.076 20.489L17.0904 19.6526C16.0788 20.1326 14.9472 20.4002 13.7544 20.4002H13.7556Z" fill="currentColor"/>
</svg>
