<svg width="36" height="36" viewBox="0 0 36 36" fill="none" xmlns="http://www.w3.org/2000/svg">
<circle cx="18" cy="18" r="17" stroke="#FF0101" stroke-width="2"/>
<g clip-path="url(#clip0_143_1494)">
<path fill-rule="evenodd" clip-rule="evenodd" d="M27.5417 12.957C27.68 12.502 27.5417 12.167 26.8792 12.167H24.6917C24.135 12.167 23.8783 12.4562 23.7392 12.7753C23.7392 12.7753 22.6267 15.4387 21.0508 17.1687C20.5408 17.6703 20.3092 17.8295 20.0308 17.8295C19.8917 17.8295 19.6825 17.6703 19.6825 17.2145V12.957C19.6825 12.4103 19.5292 12.167 19.0658 12.167H15.6258C15.2783 12.167 15.0692 12.4203 15.0692 12.6612C15.0692 13.1787 15.8575 13.2987 15.9383 14.7553V17.9203C15.9383 18.6145 15.8108 18.7403 15.5325 18.7403C14.7908 18.7403 12.9867 16.0645 11.9158 13.0028C11.7083 12.407 11.4983 12.167 10.9392 12.167H8.75C8.125 12.167 8 12.4562 8 12.7753C8 13.3437 8.74167 16.167 11.4542 19.9012C13.2625 22.4512 15.8083 23.8337 18.1275 23.8337C19.5183 23.8337 19.69 23.527 19.69 22.9978V21.0703C19.69 20.4562 19.8217 20.3337 20.2625 20.3337C20.5875 20.3337 21.1433 20.4937 22.4417 21.7228C23.925 23.1803 24.1692 23.8337 25.0042 23.8337H27.1917C27.8167 23.8337 28.13 23.527 27.95 22.9203C27.7517 22.317 27.0433 21.4412 26.1042 20.402C25.5942 19.8103 24.8292 19.1728 24.5967 18.8537C24.2725 18.4445 24.365 18.262 24.5967 17.8978C24.5967 17.8978 27.2633 14.2095 27.5408 12.957H27.5417Z" fill="#FF0101"/>
</g>
<defs>
<clipPath id="clip0_143_1494">
<rect width="20" height="20" fill="white" transform="translate(8 8)"/>
</clipPath>
</defs>
</svg>
